<?xml version="1.0" encoding="UTF-8"?>
<svg xmlns="http://www.w3.org/2000/svg" xmlns:xlink="http://www.w3.org/1999/xlink" width="384pt" height="384pt" viewBox="0 0 384 384" version="1.1">
<g id="surface1">
<path style=" stroke:none;fill-rule:nonzero;fill:rgb(100%,10.980392%,10.980392%);fill-opacity:1;" d="M 233.257812 191.835938 L 375.480469 49.613281 C 386.835938 38.269531 386.835938 19.863281 375.480469 8.519531 C 364.132812 -2.839844 345.742188 -2.839844 334.382812 8.519531 L 192.160156 150.742188 L 49.929688 8.515625 C 38.59375 -2.839844 20.179688 -2.839844 8.832031 8.515625 C -2.511719 19.863281 -2.511719 38.265625 8.832031 49.613281 L 151.070312 191.835938 L 8.519531 334.382812 C -2.839844 345.742188 -2.839844 364.132812 8.519531 375.480469 C 14.191406 381.164062 21.632812 384 29.074219 384 C 36.5 384 43.949219 381.164062 49.613281 375.480469 L 192.160156 232.929688 L 334.382812 375.152344 C 339.832031 380.613281 347.226562 383.679688 354.9375 383.675781 C 362.644531 383.679688 370.039062 380.613281 375.480469 375.152344 C 386.835938 363.808594 386.835938 345.417969 375.480469 334.058594 Z M 233.257812 191.835938 "/>
</g>
</svg>
