<?xml version="1.0" encoding="UTF-8"?>
<svg xmlns="http://www.w3.org/2000/svg" xmlns:xlink="http://www.w3.org/1999/xlink" width="512pt" height="512pt" viewBox="0 0 512 512" version="1.1">
<g id="surface1">
<path style=" stroke:none;fill-rule:nonzero;fill:rgb(50.980392%,50.980392%,50.980392%);fill-opacity:1;" d="M 248.375 56.238281 L 248.375 7.648438 C 248.375 3.421875 251.800781 0 256.023438 0 C 260.246094 0 263.671875 3.425781 263.671875 7.648438 L 263.671875 56.238281 Z M 248.375 56.238281 "/>
<path style=" stroke:none;fill-rule:nonzero;fill:rgb(100%,87.843137%,27.45098%);fill-opacity:1;" d="M 132.558594 242.109375 C 129.183594 247.113281 122.25 248.066406 117.578125 244.238281 C 70.4375 205.585938 59.632812 136.664062 94.417969 85.125 C 129.230469 33.554688 197.257812 17.8125 250.757812 47.164062 C 256.003906 50.042969 257.621094 56.835938 254.273438 61.796875 Z M 132.558594 242.109375 "/>
<path style=" stroke:none;fill-rule:nonzero;fill:rgb(100%,83.529412%,3.137255%);fill-opacity:1;" d="M 240.203125 42.042969 L 156.097656 166.648438 C 138.109375 193.292969 97.734375 190.058594 84.503906 160.761719 C 80.335938 151.53125 77.363281 141.820312 75.644531 131.894531 C 68.628906 173.234375 83.789062 216.601562 117.691406 244.328125 C 122.324219 248.113281 129.21875 247.058594 132.566406 242.105469 L 254.269531 61.796875 C 257.609375 56.851562 256.027344 50.0625 250.796875 47.191406 C 247.351562 45.304688 243.816406 43.585938 240.203125 42.042969 Z M 240.203125 42.042969 "/>
<path style=" stroke:none;fill-rule:nonzero;fill:rgb(100%,87.843137%,27.45098%);fill-opacity:1;" d="M 379.484375 242.054688 C 382.859375 247.054688 389.792969 248.011719 394.464844 244.183594 C 441.609375 205.53125 452.414062 136.609375 417.625 85.074219 C 382.8125 33.5 314.78125 17.753906 261.285156 47.105469 C 256.039062 49.988281 254.421875 56.78125 257.773438 61.746094 Z M 379.484375 242.054688 "/>
<path style=" stroke:none;fill-rule:nonzero;fill:rgb(100%,83.529412%,3.137255%);fill-opacity:1;" d="M 417.625 85.070312 C 400.21875 59.285156 374.507812 42.460938 346.460938 35.746094 C 363.367188 44.625 378.386719 57.695312 389.820312 74.632812 C 423.460938 124.464844 414.464844 190.546875 371.214844 229.804688 L 379.480469 242.054688 C 382.859375 247.054688 389.792969 248.007812 394.460938 244.183594 C 441.609375 205.53125 452.410156 136.609375 417.625 85.074219 Z M 417.625 85.070312 "/>
<path style=" stroke:none;fill-rule:nonzero;fill:rgb(44.705882%,81.960784%,98.431373%);fill-opacity:1;" d="M 259.753906 364.433594 L 266.960938 379.035156 C 267.566406 380.261719 268.738281 381.113281 270.09375 381.3125 L 286.207031 383.652344 C 289.621094 384.148438 290.980469 388.339844 288.515625 390.75 L 276.855469 402.117188 C 275.871094 403.074219 275.425781 404.449219 275.660156 405.800781 L 278.414062 421.851562 C 278.992188 425.25 275.425781 427.839844 272.375 426.238281 L 257.960938 418.660156 C 256.746094 418.023438 255.300781 418.023438 254.085938 418.660156 L 239.671875 426.238281 C 236.617188 427.839844 233.054688 425.25 233.636719 421.851562 L 236.386719 405.800781 C 236.621094 404.449219 236.171875 403.074219 235.191406 402.117188 L 223.53125 390.75 C 221.058594 388.34375 222.425781 384.148438 225.835938 383.652344 L 241.953125 381.3125 C 243.304688 381.109375 244.476562 380.261719 245.085938 379.035156 L 252.292969 364.433594 C 253.816406 361.339844 258.226562 361.339844 259.75 364.433594 Z M 259.753906 364.433594 "/>
<path style=" stroke:none;fill-rule:nonzero;fill:rgb(59.215686%,83.529412%,49.411765%);fill-opacity:1;" d="M 113.164062 296.335938 L 122.109375 314.222656 C 123.285156 316.574219 122.824219 319.421875 120.964844 321.285156 L 100.664062 341.585938 C 97.707031 344.535156 92.730469 343.726562 90.863281 339.984375 L 81.921875 322.109375 C 80.746094 319.753906 81.207031 316.910156 83.066406 315.046875 L 103.367188 294.746094 C 106.320312 291.792969 111.296875 292.601562 113.164062 296.34375 Z M 113.164062 296.335938 "/>
<path style=" stroke:none;fill-rule:nonzero;fill:rgb(100%,44.705882%,76.470588%);fill-opacity:1;" d="M 338.664062 463.144531 L 347.601562 481.023438 C 348.78125 483.382812 348.320312 486.226562 346.457031 488.089844 L 326.15625 508.386719 C 324.765625 509.777344 322.792969 510.414062 320.851562 510.101562 C 318.910156 509.785156 317.238281 508.558594 316.359375 506.796875 L 307.414062 488.914062 C 306.238281 486.558594 306.699219 483.714844 308.5625 481.855469 L 328.863281 461.550781 C 331.816406 458.601562 336.796875 459.40625 338.660156 463.144531 Z M 338.664062 463.144531 "/>
<path style=" stroke:none;fill-rule:nonzero;fill:rgb(96.862745%,42.352941%,34.117647%);fill-opacity:1;" d="M 333.617188 323.210938 L 313.648438 322.140625 C 311.019531 322 308.777344 320.191406 308.078125 317.652344 L 300.472656 289.972656 C 299.363281 285.949219 302.527344 282.019531 306.695312 282.242188 L 326.664062 283.3125 C 329.296875 283.453125 331.542969 285.261719 332.234375 287.796875 L 339.84375 315.480469 C 340.953125 319.503906 337.785156 323.433594 333.617188 323.210938 Z M 333.617188 323.210938 "/>
<path style=" stroke:none;fill-rule:nonzero;fill:rgb(100%,87.843137%,27.45098%);fill-opacity:1;" d="M 307.507812 218.886719 C 307.507812 227.5 300.519531 234.488281 291.902344 234.488281 C 283.285156 234.488281 276.300781 227.503906 276.300781 218.886719 C 276.300781 210.265625 283.285156 203.28125 291.902344 203.28125 C 300.519531 203.28125 307.507812 210.265625 307.507812 218.886719 Z M 307.507812 218.886719 "/>
<path style=" stroke:none;fill-rule:nonzero;fill:rgb(100%,87.843137%,27.45098%);fill-opacity:1;" d="M 179.828125 385.691406 C 179.828125 394.308594 172.839844 401.292969 164.222656 401.292969 C 155.605469 401.292969 148.621094 394.308594 148.621094 385.691406 C 148.621094 377.074219 155.605469 370.089844 164.222656 370.089844 C 172.839844 370.089844 179.828125 377.074219 179.828125 385.691406 Z M 179.828125 385.691406 "/>
<path style=" stroke:none;fill-rule:nonzero;fill:rgb(59.215686%,83.529412%,49.411765%);fill-opacity:1;" d="M 371.445312 444.667969 C 369.667969 444.667969 367.949219 444.046875 366.578125 442.917969 C 363.324219 440.226562 362.863281 435.410156 365.546875 432.148438 L 375.425781 420.183594 C 376.261719 419.167969 376.261719 417.699219 375.425781 416.679688 L 365.546875 404.710938 C 360.054688 398.054688 360.054688 388.390625 365.546875 381.738281 L 375.425781 369.773438 C 376.261719 368.757812 376.261719 367.289062 375.425781 366.269531 L 365.546875 354.300781 C 360.058594 347.628906 360.054688 338.003906 365.542969 331.328125 L 375.421875 319.355469 C 376.261719 318.339844 376.261719 316.867188 375.421875 315.847656 L 365.542969 303.875 C 360.058594 297.199219 360.058594 287.578125 365.542969 280.90625 C 368.230469 277.648438 373.050781 277.183594 376.308594 279.871094 C 379.566406 282.558594 380.03125 287.375 377.34375 290.632812 C 376.503906 291.652344 376.503906 293.125 377.34375 294.144531 L 387.222656 306.117188 C 392.710938 312.792969 392.710938 322.417969 387.222656 329.089844 L 377.34375 341.0625 C 376.503906 342.078125 376.503906 343.554688 377.34375 344.570312 L 387.222656 356.535156 C 392.710938 363.210938 392.710938 372.839844 387.21875 379.511719 L 377.34375 391.472656 C 376.507812 392.488281 376.507812 393.960938 377.34375 394.980469 L 387.21875 406.945312 C 392.710938 413.601562 392.710938 423.265625 387.222656 429.921875 L 377.34375 441.886719 C 375.832031 443.71875 373.644531 444.667969 371.445312 444.667969 Z M 371.445312 444.667969 "/>
<path style=" stroke:none;fill-rule:nonzero;fill:rgb(96.862745%,42.352941%,34.117647%);fill-opacity:1;" d="M 189.410156 346.234375 C 187.636719 346.234375 185.917969 345.617188 184.550781 344.484375 C 181.289062 341.796875 180.828125 336.976562 183.519531 333.71875 L 193.390625 321.753906 C 194.230469 320.738281 194.230469 319.261719 193.390625 318.246094 L 183.515625 306.28125 C 178.023438 299.605469 178.023438 289.976562 183.519531 283.300781 L 193.390625 271.339844 C 194.230469 270.324219 194.234375 268.851562 193.394531 267.835938 L 183.515625 255.863281 C 178.023438 249.210938 178.023438 239.546875 183.515625 232.890625 L 193.394531 220.921875 C 194.234375 219.90625 194.234375 218.433594 193.394531 217.414062 C 190.707031 214.15625 191.167969 209.339844 194.425781 206.648438 C 197.683594 203.964844 202.5 204.425781 205.191406 207.679688 C 210.679688 214.335938 210.679688 223.996094 205.191406 230.652344 L 195.3125 242.625 C 194.472656 243.640625 194.472656 245.113281 195.3125 246.128906 L 205.1875 258.101562 C 210.679688 264.777344 210.679688 274.402344 205.1875 281.078125 L 195.3125 293.035156 C 194.472656 294.050781 194.472656 295.527344 195.3125 296.542969 L 205.1875 308.507812 C 210.679688 315.183594 210.679688 324.808594 205.1875 331.484375 L 195.3125 343.449219 C 193.796875 345.285156 191.617188 346.230469 189.410156 346.230469 Z M 189.410156 346.234375 "/>
<path style=" stroke:none;fill-rule:nonzero;fill:rgb(100%,44.705882%,76.470588%);fill-opacity:1;" d="M 246.136719 323.265625 C 241.914062 323.265625 238.488281 319.839844 238.488281 315.617188 C 238.488281 311.390625 241.914062 307.972656 246.136719 307.972656 C 250.523438 307.972656 254.09375 304.402344 254.09375 300.015625 C 254.09375 295.789062 257.515625 292.371094 261.738281 292.371094 C 265.960938 292.371094 269.386719 295.792969 269.386719 300.015625 C 269.386719 312.835938 258.957031 323.265625 246.136719 323.265625 Z M 246.136719 323.265625 "/>
<path style=" stroke:none;fill-rule:nonzero;fill:rgb(44.705882%,81.960784%,98.431373%);fill-opacity:1;" d="M 113.929688 464.386719 C 109.703125 464.386719 106.28125 460.960938 106.28125 456.738281 C 106.28125 452.515625 109.703125 449.089844 113.929688 449.089844 C 118.320312 449.085938 121.878906 445.527344 121.886719 441.136719 C 121.886719 436.910156 125.308594 433.488281 129.53125 433.488281 C 133.75 433.488281 137.179688 436.914062 137.179688 441.136719 C 137.179688 453.957031 126.746094 464.386719 113.925781 464.386719 Z M 245.726562 179.164062 C 241.503906 179.164062 238.078125 175.742188 238.078125 171.519531 C 238.078125 158.699219 248.507812 148.269531 261.332031 148.269531 C 265.550781 148.269531 268.976562 151.695312 268.976562 155.917969 C 268.972656 160.140625 265.550781 163.5625 261.332031 163.5625 C 256.9375 163.566406 253.378906 167.128906 253.375 171.519531 C 253.371094 175.742188 249.949219 179.164062 245.730469 179.164062 Z M 245.726562 179.164062 "/>
<path style=" stroke:none;fill-rule:nonzero;fill:rgb(100%,44.705882%,76.470588%);fill-opacity:1;" d="M 403.109375 489.097656 C 398.882812 489.097656 395.460938 485.671875 395.460938 481.453125 C 395.460938 468.632812 405.894531 458.203125 418.710938 458.203125 C 422.9375 458.203125 426.359375 461.625 426.359375 465.851562 C 426.359375 470.074219 422.933594 473.496094 418.710938 473.496094 C 414.316406 473.5 410.757812 477.058594 410.753906 481.453125 C 410.757812 485.671875 407.332031 489.097656 403.109375 489.097656 Z M 403.109375 489.097656 "/>
<path style=" stroke:none;fill-rule:nonzero;fill:rgb(100%,87.843137%,27.45098%);fill-opacity:1;" d="M 204.539062 511.75 C 200.316406 511.75 196.890625 508.324219 196.890625 504.101562 C 196.890625 491.285156 207.320312 480.855469 220.144531 480.855469 C 224.363281 480.855469 227.785156 484.277344 227.785156 488.5 C 227.785156 492.726562 224.363281 496.148438 220.144531 496.148438 C 215.75 496.152344 212.191406 499.710938 212.183594 504.105469 C 212.183594 508.328125 208.761719 511.75 204.542969 511.75 Z M 204.539062 511.75 "/>
</g>
</svg>
