<?xml version="1.0" encoding="UTF-8"?>
<svg xmlns="http://www.w3.org/2000/svg" xmlns:xlink="http://www.w3.org/1999/xlink" width="401pt" height="401pt" viewBox="0 0 401 401" version="1.1">
<g id="surface1">
<path style=" stroke:none;fill-rule:nonzero;fill:rgb(0%,0%,0%);fill-opacity:1;" d="M 369.886719 251.75 C 364.375 251.75 359.90625 256.21875 359.90625 261.730469 L 359.90625 350.359375 C 359.886719 366.890625 346.496094 380.285156 329.964844 380.300781 L 49.902344 380.300781 C 33.375 380.285156 19.980469 366.890625 19.960938 350.359375 L 19.960938 90.261719 C 19.980469 73.730469 33.375 60.339844 49.902344 60.316406 L 138.53125 60.316406 C 144.046875 60.316406 148.515625 55.851562 148.515625 50.335938 C 148.515625 44.828125 144.046875 40.355469 138.53125 40.355469 L 49.902344 40.355469 C 22.355469 40.386719 0.03125 62.710938 0 90.261719 L 0 350.351562 C 0.03125 377.902344 22.355469 400.226562 49.902344 400.257812 L 329.964844 400.257812 C 357.511719 400.226562 379.835938 377.902344 379.867188 350.351562 L 379.867188 261.730469 C 379.867188 256.21875 375.398438 251.75 369.886719 251.75 Z M 375.90625 14.671875 C 358.363281 -2.867188 329.929688 -2.867188 312.386719 14.671875 L 134.324219 192.738281 C 133.101562 193.957031 132.222656 195.46875 131.761719 197.132812 L 108.347656 281.667969 C 107.382812 285.136719 108.363281 288.855469 110.90625 291.390625 C 113.449219 293.933594 117.164062 294.910156 120.628906 293.953125 L 205.164062 270.53125 C 206.828125 270.074219 208.339844 269.191406 209.558594 267.972656 L 387.617188 89.914062 C 405.132812 72.363281 405.132812 43.949219 387.617188 26.398438 Z M 156.070312 199.226562 L 301.800781 53.492188 L 348.808594 100.5 L 203.074219 246.234375 Z M 146.679688 218.0625 L 184.230469 255.617188 L 132.289062 270.007812 Z M 373.503906 75.792969 L 362.917969 86.375 L 315.914062 39.371094 L 326.492188 28.785156 C 336.238281 19.042969 352.042969 19.042969 361.777344 28.785156 L 373.492188 40.5 C 383.21875 50.253906 383.21875 66.050781 373.492188 75.789062 Z M 373.503906 75.792969 "/>
</g>
</svg>
