<?xml version="1.0" encoding="UTF-8"?>
<svg xmlns="http://www.w3.org/2000/svg" xmlns:xlink="http://www.w3.org/1999/xlink" width="384pt" height="384pt" viewBox="0 0 384 384" version="1.1">
<g id="surface1">
<path style=" stroke:none;fill-rule:nonzero;fill:rgb(43.137255%,86.27451%,97.647059%);fill-opacity:1;" d="M 254.085938 122.804688 C 254.085938 128.902344 249.144531 133.847656 243.046875 133.847656 C 236.945312 133.847656 232.003906 128.902344 232.003906 122.804688 C 232.003906 116.707031 236.945312 111.761719 243.046875 111.761719 C 249.144531 111.761719 254.085938 116.707031 254.085938 122.804688 Z M 254.085938 122.804688 "/>
<path style=" stroke:none;fill-rule:nonzero;fill:rgb(55.294118%,84.705882%,23.921569%);fill-opacity:1;" d="M 57.949219 247.640625 C 57.949219 252.78125 53.785156 256.949219 48.644531 256.949219 C 43.503906 256.949219 39.335938 252.78125 39.335938 247.640625 C 39.335938 242.503906 43.503906 238.335938 48.644531 238.335938 C 53.785156 238.335938 57.949219 242.503906 57.949219 247.640625 Z M 57.949219 247.640625 "/>
<path style=" stroke:none;fill-rule:nonzero;fill:rgb(100%,66.27451%,17.254902%);fill-opacity:1;" d="M 212.527344 26.910156 L 188.796875 23.464844 L 178.183594 1.960938 C 177.589844 0.761719 176.371094 0 175.03125 0 C 173.695312 0 172.472656 0.757812 171.878906 1.960938 L 161.265625 23.464844 L 137.535156 26.910156 C 134.660156 27.328125 133.503906 30.875 135.585938 32.90625 L 152.757812 49.648438 L 148.703125 73.285156 C 148.214844 76.148438 151.230469 78.34375 153.804688 76.988281 L 175.03125 65.828125 C 198.152344 77.984375 196.699219 77.394531 197.894531 77.394531 C 198.621094 77.394531 199.347656 77.167969 199.960938 76.722656 C 201.042969 75.933594 201.582031 74.601562 201.359375 73.285156 L 197.304688 49.648438 L 214.476562 32.90625 C 216.558594 30.878906 215.410156 27.332031 212.527344 26.910156 Z M 212.527344 26.910156 "/>
<path style=" stroke:none;fill-rule:nonzero;fill:rgb(100%,53.333333%,15.686275%);fill-opacity:1;" d="M 173.242188 55.847656 L 156.070312 39.105469 C 153.988281 37.078125 155.140625 33.53125 158.019531 33.113281 L 181.75 29.664062 L 186.800781 19.425781 L 178.183594 1.960938 C 177.589844 0.761719 176.371094 0 175.03125 0 C 173.695312 0 172.472656 0.757812 171.878906 1.960938 L 161.265625 23.464844 L 137.535156 26.910156 C 134.660156 27.328125 133.503906 30.875 135.585938 32.90625 L 152.757812 49.648438 L 148.703125 73.285156 C 148.214844 76.148438 151.230469 78.34375 153.804688 76.988281 L 171.179688 67.851562 Z M 173.242188 55.847656 "/>
<path style=" stroke:none;fill-rule:nonzero;fill:rgb(100%,66.27451%,17.254902%);fill-opacity:1;" d="M 347.085938 140.214844 L 332.804688 126.046875 L 336.382812 106.246094 C 336.816406 103.84375 334.300781 101.980469 332.128906 103.097656 L 314.238281 112.300781 L 296.515625 102.78125 C 294.367188 101.628906 291.816406 103.445312 292.207031 105.851562 L 295.433594 125.714844 L 280.902344 139.628906 C 279.140625 141.316406 280.078125 144.304688 282.492188 144.671875 L 302.375 147.742188 L 311.121094 165.863281 C 311.328125 166.292969 311.636719 166.667969 312.019531 166.953125 C 312.71875 167.46875 313.613281 167.648438 314.457031 167.449219 C 315.304688 167.246094 316.019531 166.683594 316.410156 165.910156 L 325.472656 147.945312 L 345.410156 145.230469 C 347.824219 144.902344 348.816406 141.933594 347.085938 140.214844 Z M 347.085938 140.214844 "/>
<path style=" stroke:none;fill-rule:nonzero;fill:rgb(100%,53.333333%,15.686275%);fill-opacity:1;" d="M 305.867188 139.820312 L 302.640625 119.960938 C 302.253906 117.554688 304.796875 115.734375 306.949219 116.890625 L 324.671875 126.410156 L 333.566406 121.835938 L 336.382812 106.246094 C 336.8125 103.847656 334.300781 101.984375 332.128906 103.097656 L 314.238281 112.304688 L 296.511719 102.78125 C 294.367188 101.632812 291.816406 103.445312 292.207031 105.855469 L 295.433594 125.714844 L 280.898438 139.628906 C 279.140625 141.316406 280.078125 144.304688 282.488281 144.675781 L 298.253906 147.109375 L 305.863281 139.820312 Z M 305.867188 139.820312 "/>
<path style=" stroke:none;fill-rule:nonzero;fill:rgb(90.980392%,75.294118%,9.411765%);fill-opacity:1;" d="M 143.234375 353.734375 C 143.234375 353.734375 131.566406 256.617188 97.992188 202.070312 C 93.460938 195.199219 86.304688 191.707031 77.027344 196.625 L 77.027344 196.628906 C 67.054688 201.921875 72.523438 212.523438 72.523438 212.523438 L 72.523438 212.527344 C 87.917969 231.648438 122.132812 279.9375 143.242188 353.734375 Z M 143.234375 353.734375 "/>
<path style=" stroke:none;fill-rule:nonzero;fill:rgb(94.901961%,83.137255%,13.333333%);fill-opacity:1;" d="M 329.371094 283.703125 L 332.773438 281.660156 C 336.957031 278.65625 342.820312 272.417969 337.027344 263.480469 C 330.238281 253 318.472656 260.226562 316.617188 261.464844 C 255.675781 305.269531 221.925781 384 221.925781 384 C 260.265625 330.914062 303.875 299.230469 329.371094 283.703125 Z M 329.371094 283.703125 "/>
<path style=" stroke:none;fill-rule:nonzero;fill:rgb(90.980392%,75.294118%,9.411765%);fill-opacity:1;" d="M 56.375 288.976562 C 54.28125 287.464844 43.480469 280.335938 37.792969 289.5 C 34.285156 295.160156 36.214844 300.1875 41.996094 303.660156 L 42 303.664062 C 62.121094 315.789062 97.421875 341.109375 128.402344 384 C 128.402344 384 102.769531 324.207031 56.375 288.976562 Z M 56.375 288.976562 "/>
<path style=" stroke:none;fill-rule:nonzero;fill:rgb(91.764706%,27.843137%,23.137255%);fill-opacity:1;" d="M 111.980469 147.109375 C 112.441406 145.730469 112.089844 145.839844 103.042969 136.867188 C 105.332031 124.195312 105.652344 124.210938 104.492188 123.351562 C 103.320312 122.484375 103.320312 122.851562 91.988281 128.683594 C 80.652344 122.59375 80.757812 122.292969 79.582031 123.132812 C 78.394531 123.980469 78.746094 124.09375 80.789062 136.667969 L 72.136719 144.957031 C 71.085938 145.960938 71.644531 147.730469 73.082031 147.960938 L 84.925781 149.789062 C 90.515625 161.378906 90.25 161.558594 91.695312 161.574219 C 93.152344 161.585938 92.9375 161.289062 98.679688 149.910156 L 110.550781 148.292969 C 111.214844 148.203125 111.769531 147.742188 111.980469 147.109375 Z M 111.980469 147.109375 "/>
<path style=" stroke:none;fill-rule:nonzero;fill:rgb(83.921569%,20%,13.333333%);fill-opacity:1;" d="M 96.710938 146.503906 C 83.992188 144.539062 83.894531 144.847656 83.460938 143.46875 C 83.023438 142.078125 83.371094 142.199219 92.574219 133.382812 L 91.796875 128.578125 C 80.6875 122.613281 80.757812 122.289062 79.582031 123.128906 C 78.398438 123.976562 78.746094 124.089844 80.789062 136.667969 C 71.496094 145.566406 71.242188 145.371094 71.675781 146.75 C 72.113281 148.136719 72.328125 147.84375 84.925781 149.785156 C 90.347656 161.023438 90.101562 160.808594 90.667969 161.226562 C 91.546875 161.875 92.792969 161.574219 93.28125 160.605469 L 98.515625 150.238281 Z M 96.710938 146.503906 "/>
<path style=" stroke:none;fill-rule:nonzero;fill:rgb(94.901961%,83.137255%,13.333333%);fill-opacity:1;" d="M 190.296875 106.726562 L 190.285156 106.71875 C 176.722656 99.589844 174.074219 99.207031 159.773438 106.722656 L 159.769531 106.722656 C 147.464844 113.191406 147.679688 122.316406 147.980469 124.746094 C 155.082031 168.675781 168.46875 257.964844 175.03125 343.921875 C 181.570312 258.253906 194.890625 169.277344 202.011719 125.1875 C 202.816406 120.167969 203.707031 113.777344 190.296875 106.722656 Z M 190.296875 106.726562 "/>
<path style=" stroke:none;fill-rule:nonzero;fill:rgb(90.980392%,75.294118%,9.411765%);fill-opacity:1;" d="M 163.128906 124.746094 C 162.832031 122.316406 162.617188 113.191406 174.921875 106.726562 L 174.921875 106.722656 C 177.957031 105.128906 180.460938 103.894531 182.660156 103 C 174.988281 99.808594 170.917969 100.863281 159.773438 106.722656 L 159.769531 106.726562 C 147.464844 113.191406 147.679688 122.316406 147.980469 124.746094 C 155.082031 168.679688 168.46875 257.96875 175.03125 343.921875 C 177.039062 317.59375 179.691406 290.949219 182.605469 265.394531 C 176.003906 207.523438 168.054688 155.21875 163.128906 124.746094 Z M 163.128906 124.746094 "/>
<path style=" stroke:none;fill-rule:nonzero;fill:rgb(94.901961%,83.137255%,13.333333%);fill-opacity:1;" d="M 289.691406 190.054688 C 292.839844 185.855469 292.023438 182.414062 291.460938 181.023438 L 287.902344 173.648438 C 286.21875 170.164062 283.332031 169.195312 282.054688 168.929688 L 274.753906 167.800781 C 268.457031 166.828125 265.019531 172.238281 264.660156 172.839844 C 224.871094 242.609375 203.910156 356.480469 203.910156 356.480469 C 231.183594 274.824219 267.699219 218.9375 289.675781 190.066406 Z M 289.691406 190.054688 "/>
</g>
</svg>
