<?xml version="1.0" encoding="UTF-8"?>
<svg xmlns="http://www.w3.org/2000/svg" xmlns:xlink="http://www.w3.org/1999/xlink" width="263pt" height="263pt" viewBox="0 0 263 263" version="1.1">
<g id="surface1">
<path style=" stroke:none;fill-rule:nonzero;fill:rgb(0%,0%,0%);fill-opacity:1;" d="M 131.5 128.625 C 160.742188 128.625 184.449219 99.832031 184.449219 64.3125 C 184.449219 28.792969 176.664062 0 131.5 0 C 86.335938 0 78.550781 28.792969 78.550781 64.3125 C 78.550781 99.832031 102.257812 128.625 131.5 128.625 Z M 31.484375 226.820312 C 31.476562 224.65625 31.46875 226.210938 31.484375 226.820312 Z M 31.484375 226.820312 "/>
<path style=" stroke:none;fill-rule:nonzero;fill:rgb(0%,0%,0%);fill-opacity:1;" d="M 231.503906 228.511719 C 231.53125 227.910156 231.511719 224.398438 231.503906 228.511719 Z M 231.390625 224.222656 C 230.410156 162.351562 222.328125 144.71875 160.492188 133.558594 C 160.492188 133.558594 151.789062 144.648438 131.5 144.648438 C 111.210938 144.648438 102.503906 133.558594 102.503906 133.558594 C 41.34375 144.597656 32.761719 161.964844 31.636719 222.214844 L 31.484375 226.820312 L 31.492188 233.320312 C 31.492188 233.320312 46.210938 263 131.5 263 C 216.789062 263 231.5 233.320312 231.5 233.320312 L 231.503906 228.511719 C 231.488281 228.867188 231.453125 228.183594 231.390625 224.222656 Z M 231.390625 224.222656 "/>
</g>
</svg>
