<?xml version="1.0" encoding="UTF-8"?>
<svg xmlns="http://www.w3.org/2000/svg" xmlns:xlink="http://www.w3.org/1999/xlink" width="384pt" height="384pt" viewBox="0 0 384 384" version="1.1">
<g id="surface1">
<path style=" stroke:none;fill-rule:nonzero;fill:rgb(92.941176%,33.333333%,45.882353%);fill-opacity:1;" d="M 76.722656 217.003906 L 44.636719 217.003906 C 41.792969 217.003906 39.015625 215.804688 36.339844 216.367188 C 18.277344 220.1875 4.726562 236.21875 4.726562 255.417969 L 4.726562 294.007812 C 4.722656 295.726562 6.117188 297.121094 7.839844 297.121094 L 113.523438 297.121094 C 115.242188 297.121094 116.636719 295.726562 116.636719 294.007812 L 116.636719 255.417969 C 116.636719 236.21875 103.082031 220.1875 85.019531 216.367188 C 82.34375 215.804688 79.566406 217.007812 76.722656 217.007812 Z M 76.722656 217.003906 "/>
<path style=" stroke:none;fill-rule:nonzero;fill:rgb(26.666667%,28.627451%,40%);fill-opacity:1;" d="M 115.15625 161.691406 L 115.15625 131.949219 C 115.15625 101.859375 90.769531 77.46875 60.679688 77.46875 C 30.589844 77.46875 6.199219 101.859375 6.199219 131.949219 L 6.199219 161.691406 C 6.199219 169.703125 3.621094 179.484375 0.363281 185.664062 C -0.730469 187.742188 0.765625 190.230469 3.113281 190.230469 L 118.246094 190.230469 C 120.589844 190.230469 122.089844 187.742188 120.992188 185.664062 C 117.738281 179.484375 115.160156 169.703125 115.160156 161.691406 Z M 115.15625 161.691406 "/>
<path style=" stroke:none;fill-rule:nonzero;fill:rgb(98.823529%,81.568627%,68.235294%);fill-opacity:1;" d="M 101.078125 146.855469 L 101.078125 155.339844 C 101.078125 177.648438 82.988281 195.730469 60.679688 195.730469 C 38.371094 195.730469 20.28125 177.65625 20.28125 155.339844 L 20.28125 129.046875 C 20.28125 127.628906 20.367188 126.222656 20.519531 124.84375 L 25.683594 124.84375 C 31.171875 124.84375 36.078125 128.265625 37.980469 133.410156 C 39.476562 137.449219 42.148438 140.8125 45.519531 143.164062 C 48.972656 145.570312 53.078125 146.855469 57.285156 146.855469 Z M 101.078125 146.855469 "/>
<path style=" stroke:none;fill-rule:nonzero;fill:rgb(92.156863%,93.333333%,94.901961%);fill-opacity:1;" d="M 85.019531 216.375 C 82.339844 215.808594 79.570312 215.503906 76.722656 215.503906 L 44.636719 215.503906 C 41.792969 215.503906 39.019531 215.808594 36.339844 216.375 C 38.261719 230.933594 47.722656 243.109375 60.679688 248.859375 C 73.632812 243.109375 83.097656 230.933594 85.015625 216.375 Z M 85.019531 216.375 "/>
<path style=" stroke:none;fill-rule:nonzero;fill:rgb(18.039216%,20.392157%,29.803922%);fill-opacity:1;" d="M 384 165.539062 C 384 176.640625 375 185.640625 363.898438 185.640625 C 352.796875 185.640625 343.796875 176.640625 343.796875 165.539062 C 343.796875 154.4375 352.796875 145.4375 363.898438 145.4375 C 375 145.4375 384 154.4375 384 165.539062 Z M 384 165.539062 "/>
<path style=" stroke:none;fill-rule:nonzero;fill:rgb(98.823529%,81.568627%,68.235294%);fill-opacity:1;" d="M 323.5 195.734375 C 301.191406 195.734375 283.105469 177.648438 283.105469 155.335938 L 283.105469 129.046875 C 283.105469 108.363281 299.871094 91.59375 320.554688 91.59375 L 326.445312 91.59375 C 347.128906 91.59375 363.898438 108.363281 363.898438 129.046875 L 363.898438 155.335938 C 363.894531 177.648438 345.808594 195.734375 323.5 195.734375 Z M 323.5 195.734375 "/>
<path style=" stroke:none;fill-rule:nonzero;fill:rgb(36.078431%,61.176471%,93.333333%);fill-opacity:1;" d="M 339.542969 215.503906 L 307.457031 215.503906 C 285.40625 215.503906 267.542969 233.375 267.542969 255.417969 L 267.542969 294.007812 C 267.542969 295.726562 268.9375 297.121094 270.65625 297.121094 L 376.339844 297.121094 C 378.0625 297.121094 379.457031 295.726562 379.453125 294.007812 L 379.453125 255.417969 C 379.453125 233.367188 361.585938 215.503906 339.542969 215.503906 Z M 339.542969 215.503906 "/>
<path style=" stroke:none;fill-rule:nonzero;fill:rgb(26.666667%,28.627451%,40%);fill-opacity:1;" d="M 363.898438 129.046875 L 363.898438 155.460938 C 306.117188 150.363281 301.234375 119.199219 301.234375 119.199219 L 301.234375 139.128906 L 283.105469 139.128906 L 283.105469 129.046875 C 283.105469 108.363281 299.871094 91.597656 320.554688 91.597656 L 326.449219 91.597656 C 347.132812 91.597656 363.898438 108.363281 363.898438 129.046875 Z M 363.898438 129.046875 "/>
<path style=" stroke:none;fill-rule:nonzero;fill:rgb(92.156863%,93.333333%,94.901961%);fill-opacity:1;" d="M 347.839844 216.375 C 345.160156 215.808594 342.390625 215.503906 339.542969 215.503906 L 307.457031 215.503906 C 304.609375 215.503906 301.839844 215.808594 299.160156 216.375 C 301.082031 230.933594 310.542969 243.109375 323.496094 248.859375 C 336.453125 243.109375 345.917969 230.933594 347.835938 216.375 Z M 347.839844 216.375 "/>
<path style=" stroke:none;fill-rule:nonzero;fill:rgb(98.823529%,67.058824%,16.078431%);fill-opacity:1;" d="M 268.636719 268.675781 C 249.859375 200.144531 250.273438 195.429688 263.464844 131.46875 C 264.640625 126.203125 265.265625 120.730469 265.265625 115.113281 C 265.265625 73.871094 231.832031 40.433594 190.589844 40.433594 C 149.347656 40.433594 115.910156 73.871094 115.910156 115.113281 C 115.910156 120.730469 116.535156 126.203125 117.714844 131.46875 C 130.902344 195.429688 131.316406 200.144531 112.539062 268.675781 C 110.386719 275.976562 109.230469 283.703125 109.230469 291.699219 C 109.230469 336.636719 145.65625 325.785156 190.589844 325.785156 C 235.523438 325.785156 271.949219 336.632812 271.949219 291.699219 C 271.949219 283.703125 270.789062 275.976562 268.636719 268.675781 Z M 268.636719 268.675781 "/>
<path style=" stroke:none;fill-rule:nonzero;fill:rgb(86.666667%,55.294118%,9.803922%);fill-opacity:1;" d="M 268.636719 268.675781 C 249.859375 200.144531 250.273438 195.429688 263.464844 131.46875 C 264.640625 126.203125 265.265625 120.730469 265.265625 115.113281 C 265.265625 73.871094 231.832031 40.433594 190.589844 40.433594 C 188.660156 40.433594 186.746094 40.507812 184.851562 40.652344 C 218.335938 43.582031 244.714844 75.800781 244.714844 115.113281 C 244.71875 120.601562 244.195312 126.082031 243.152344 131.46875 C 231.699219 195.433594 231.339844 200.148438 247.644531 268.675781 C 249.519531 275.976562 250.519531 283.703125 250.519531 291.703125 C 250.519531 318.8125 239 325.613281 221.296875 326.746094 C 251.007812 327.769531 271.949219 325.769531 271.949219 291.703125 C 271.949219 283.703125 270.789062 275.980469 268.636719 268.675781 Z M 268.636719 268.675781 "/>
<path style=" stroke:none;fill-rule:nonzero;fill:rgb(39.607843%,42.745098%,53.333333%);fill-opacity:1;" d="M 213.914062 226.394531 L 167.261719 226.394531 C 158.339844 226.394531 149.894531 226.90625 142.34375 230.5 C 122.761719 239.824219 109.230469 259.792969 109.230469 282.925781 L 109.230469 335.78125 C 109.230469 340.078125 112.714844 343.5625 117.011719 343.5625 L 264.164062 343.5625 C 268.460938 343.5625 271.945312 340.078125 271.945312 335.78125 L 271.945312 282.925781 C 271.945312 259.636719 258.226562 239.550781 238.429688 230.308594 C 230.980469 226.835938 222.675781 226.394531 213.914062 226.394531 Z M 213.914062 226.394531 "/>
<path style=" stroke:none;fill-rule:nonzero;fill:rgb(26.666667%,28.627451%,40%);fill-opacity:1;" d="M 213.914062 226.394531 L 202.140625 226.394531 C 214.289062 226.394531 225.460938 229.632812 234.269531 237.5625 C 246.082031 248.195312 253.648438 264.5625 253.648438 282.925781 L 253.648438 335.78125 C 253.648438 340.078125 250.558594 343.5625 246.742188 343.5625 L 264.15625 343.5625 C 268.457031 343.5625 271.941406 340.078125 271.941406 335.78125 L 271.941406 282.925781 C 271.941406 259.632812 258.21875 239.546875 238.421875 230.308594 C 230.976562 226.832031 222.667969 226.394531 213.910156 226.394531 Z M 213.914062 226.394531 "/>
<path style=" stroke:none;fill-rule:nonzero;fill:rgb(98.823529%,81.568627%,68.235294%);fill-opacity:1;" d="M 244.925781 153.667969 C 241.886719 180.980469 218.71875 202.222656 190.589844 202.222656 C 160.390625 202.222656 135.90625 177.738281 135.90625 147.542969 L 135.90625 111.953125 C 135.90625 98.730469 140.972656 86.683594 149.273438 77.65625 C 161.738281 106.4375 194.195312 140.507812 244.925781 153.667969 Z M 244.925781 153.667969 "/>
<path style=" stroke:none;fill-rule:nonzero;fill:rgb(89.803922%,62.352941%,41.568627%);fill-opacity:1;" d="M 224.605469 146.929688 C 224.710938 149.066406 224.628906 151.304688 224.316406 153.667969 C 222.019531 179.117188 205.546875 199.289062 184.855469 201.925781 C 186.738281 202.121094 188.652344 202.222656 190.589844 202.222656 C 218.714844 202.222656 241.886719 180.980469 244.925781 153.667969 C 237.78125 151.816406 231.015625 149.539062 224.605469 146.929688 Z M 224.605469 146.929688 "/>
<path style=" stroke:none;fill-rule:nonzero;fill:rgb(92.156863%,93.333333%,94.901961%);fill-opacity:1;" d="M 190.589844 317.308594 L 238.277344 230.257812 C 230.867188 226.824219 222.617188 224.894531 213.914062 224.894531 L 167.261719 224.894531 C 158.558594 224.894531 150.308594 226.824219 142.898438 230.257812 Z M 190.589844 317.308594 "/>
<path style=" stroke:none;fill-rule:nonzero;fill:rgb(92.941176%,33.333333%,45.882353%);fill-opacity:1;" d="M 199.0625 246.257812 C 207.5625 242.882812 213.570312 234.59375 213.570312 224.894531 L 167.605469 224.894531 C 167.605469 234.589844 173.613281 242.882812 182.109375 246.257812 L 174.519531 287.976562 L 190.585938 317.300781 L 206.65625 287.976562 Z M 199.0625 246.257812 "/>
</g>
</svg>
