<?xml version="1.0" encoding="UTF-8"?>
<svg xmlns="http://www.w3.org/2000/svg" xmlns:xlink="http://www.w3.org/1999/xlink" width="384pt" height="384pt" viewBox="0 0 384 384" version="1.1">
<g id="surface1">
<path style=" stroke:none;fill-rule:nonzero;fill:rgb(0%,0%,0%);fill-opacity:1;" d="M 350.863281 323.886719 L 323.378906 278.09375 C 310.707031 256.960938 304 232.769531 304 208.113281 L 304 168 C 304 106.257812 253.746094 56 192 56 C 130.257812 56 80 106.257812 80 168 L 80 208.113281 C 80 232.769531 73.296875 256.960938 60.625 278.097656 L 33.136719 323.886719 C 31.648438 326.351562 31.613281 329.441406 33.023438 331.933594 C 34.449219 334.449219 37.117188 336 39.996094 336 L 343.996094 336 C 346.882812 336 349.546875 334.445312 350.972656 331.9375 C 352.382812 329.4375 352.351562 326.351562 350.863281 323.886719 Z M 54.128906 320 L 74.335938 286.320312 C 88.511719 262.695312 96 235.664062 96 208.113281 L 96 168 C 96 115.054688 139.054688 72 192 72 C 244.945312 72 288 115.054688 288 168 L 288 208.113281 C 288 235.664062 295.488281 262.703125 309.648438 286.320312 L 329.871094 320 Z M 54.128906 320 "/>
<path style=" stroke:none;fill-rule:nonzero;fill:rgb(0%,0%,0%);fill-opacity:1;" d="M 192 0 C 174.351562 0 160 14.351562 160 32 L 160 64 C 160 68.414062 163.585938 72 168 72 C 172.414062 72 176 68.414062 176 64 L 176 32 C 176 23.167969 183.167969 16 192 16 C 200.832031 16 208 23.167969 208 32 L 208 64 C 208 68.414062 211.585938 72 216 72 C 220.414062 72 224 68.414062 224 64 L 224 32 C 224 14.351562 209.648438 0 192 0 Z M 226.625 323.953125 C 224.367188 320.144531 219.488281 318.898438 215.664062 321.085938 C 211.839844 323.328125 210.558594 328.238281 212.800781 332.046875 C 214.878906 335.582031 216.015625 339.824219 216.015625 344 C 216.015625 357.230469 205.246094 368 192.015625 368 C 178.78125 368 168.015625 357.230469 168.015625 344 C 168.015625 339.824219 169.152344 335.582031 171.230469 332.046875 C 173.453125 328.222656 172.175781 323.328125 168.367188 321.085938 C 164.511719 318.894531 159.644531 320.140625 157.40625 323.953125 C 153.871094 330 152.007812 336.925781 152.007812 344 C 152 366.0625 169.933594 384 192 384 C 214.066406 384 232 366.0625 232.03125 344 C 232.03125 336.929688 230.160156 330 226.632812 323.953125 Z M 226.625 323.953125 "/>
</g>
</svg>
