<?xml version="1.0" encoding="UTF-8"?>
<svg xmlns="http://www.w3.org/2000/svg" xmlns:xlink="http://www.w3.org/1999/xlink" width="512pt" height="512pt" viewBox="0 0 512 512" version="1.1">
<g id="surface1">
<path style=" stroke:none;fill-rule:nonzero;fill:rgb(0%,0%,0%);fill-opacity:1;" d="M 511.75 209.898438 C 511.75 246.351562 502.253906 282.261719 484.289062 313.746094 C 478.820312 323.335938 466.617188 326.675781 457.023438 321.203125 C 447.433594 315.734375 444.097656 303.523438 449.566406 293.9375 C 464.089844 268.480469 471.769531 239.414062 471.769531 209.898438 C 471.769531 116.207031 395.546875 39.980469 301.851562 39.980469 C 208.160156 39.980469 131.9375 116.207031 131.9375 209.898438 C 131.9375 303.589844 208.160156 379.816406 301.851562 379.816406 C 331.011719 379.816406 359.765625 372.308594 385.007812 358.117188 C 394.632812 352.703125 406.820312 356.121094 412.230469 365.742188 C 417.640625 375.363281 414.226562 387.550781 404.605469 392.960938 C 373.394531 410.519531 337.863281 419.796875 301.851562 419.796875 C 251.398438 419.796875 205.050781 401.898438 168.8125 372.125 L 34.078125 505.941406 C 30.179688 509.8125 25.085938 511.75 19.992188 511.75 C 14.851562 511.75 9.714844 509.78125 5.808594 505.847656 C -1.96875 498.015625 -1.925781 485.355469 5.90625 477.574219 L 140.460938 343.9375 C 110.1875 307.554688 91.957031 260.816406 91.957031 209.898438 C 91.957031 94.160156 186.117188 0 301.851562 0 C 417.589844 0 511.75 94.160156 511.75 209.898438 Z M 436.148438 201.402344 C 440.996094 208.296875 440.996094 217.492188 436.152344 224.386719 C 435.453125 225.386719 433.039062 228.800781 431.539062 230.6875 C 424.847656 239.101562 409.175781 258.820312 387.371094 276.222656 C 359.410156 298.535156 330.640625 309.847656 301.851562 309.847656 C 273.066406 309.847656 244.300781 298.535156 216.339844 276.21875 C 194.53125 258.828125 178.859375 239.105469 172.167969 230.6875 C 170.667969 228.800781 168.269531 225.390625 167.550781 224.386719 C 162.710938 217.492188 162.710938 208.296875 167.554688 201.402344 C 168.257812 200.402344 170.667969 196.988281 172.167969 195.105469 C 178.859375 186.683594 194.535156 166.972656 216.339844 149.570312 C 244.292969 127.257812 273.070312 115.945312 301.851562 115.945312 C 330.636719 115.945312 359.410156 127.257812 387.371094 149.570312 C 409.175781 166.964844 424.847656 186.6875 431.539062 195.109375 C 433.039062 196.996094 435.4375 200.402344 436.148438 201.402344 Z M 394.449219 212.894531 C 362.667969 175.082031 331.542969 155.925781 301.851562 155.925781 C 272.15625 155.925781 241.039062 175.082031 209.257812 212.894531 C 241.039062 250.710938 272.164062 269.867188 301.851562 269.867188 C 331.539062 269.867188 362.660156 250.714844 394.449219 212.894531 Z M 302.851562 174.914062 C 281.875 174.914062 264.871094 191.917969 264.871094 212.894531 C 264.871094 233.875 281.875 250.878906 302.851562 250.878906 C 323.828125 250.878906 340.832031 233.875 340.832031 212.894531 C 340.832031 191.917969 323.828125 174.914062 302.851562 174.914062 Z M 302.851562 174.914062 "/>
</g>
</svg>
