<?xml version="1.0" encoding="UTF-8"?>
<svg xmlns="http://www.w3.org/2000/svg" xmlns:xlink="http://www.w3.org/1999/xlink" width="504pt" height="504pt" viewBox="0 0 504 504" version="1.1">
<g id="surface1">
<path style=" stroke:none;fill-rule:nonzero;fill:rgb(96.470588%,73.333333%,25.882353%);fill-opacity:1;" d="M 88 211.753906 C 53.753906 225.246094 43.769531 248 43.769531 248 L 88 273.832031 Z M 416.078125 211.753906 C 450.328125 225.257812 460.320312 248 460.320312 248 L 416.078125 273.832031 Z M 416.078125 211.753906 "/>
<path style=" stroke:none;fill-rule:nonzero;fill:rgb(96.078431%,96.862745%,98.039216%);fill-opacity:1;" d="M 416 72 L 344 72 L 344 0 Z M 416 72 "/>
<path style=" stroke:none;fill-rule:nonzero;fill:rgb(90.196078%,91.372549%,92.941176%);fill-opacity:1;" d="M 88 0 L 424 0 L 424 356.640625 L 88 356.640625 Z M 88 0 "/>
<path style=" stroke:none;fill-rule:nonzero;fill:rgb(96.078431%,96.862745%,98.039216%);fill-opacity:1;" d="M 408 301.871094 L 411.769531 308.351562 L 287.199219 380.988281 C 280.390625 368.503906 267.199219 360.03125 252 360.03125 C 236.800781 360.03125 223.601562 368.511719 216.800781 380.988281 L 215.207031 380.03125 L 100.566406 313.148438 L 104.007812 307.234375 L 104.007812 40 C 110.375 40.007812 116.484375 37.480469 120.984375 32.980469 C 125.488281 28.476562 128.015625 22.367188 128.007812 16 L 384.007812 16 C 383.996094 22.367188 386.523438 28.476562 391.027344 32.980469 C 395.527344 37.480469 401.636719 40.007812 408.007812 40 L 408.007812 301.871094 Z M 408 301.871094 "/>
<path style=" stroke:none;fill-rule:nonzero;fill:rgb(100%,80.784314%,32.941176%);fill-opacity:1;" d="M 296 168 L 216 168 L 200 120 L 224 128 L 256 88 L 288 128 L 312 120 Z M 256 76.007812 C 253.792969 76.007812 252 74.214844 252 72.007812 L 252 48.007812 C 252 45.800781 253.792969 44.007812 256 44.007812 C 258.207031 44.007812 260 45.800781 260 48.007812 L 260 72.007812 C 260 74.214844 258.207031 76.007812 256 76.007812 Z M 256 76.007812 "/>
<path style=" stroke:none;fill-rule:nonzero;fill:rgb(100%,80.784314%,32.941176%);fill-opacity:1;" d="M 287.992188 92 C 286.96875 92 285.945312 91.601562 285.160156 90.832031 C 283.601562 89.273438 283.601562 86.734375 285.160156 85.175781 L 300.519531 69.816406 C 302.078125 68.257812 304.617188 68.257812 306.175781 69.816406 C 307.734375 71.375 307.734375 73.910156 306.175781 75.472656 L 290.816406 90.832031 C 290.039062 91.609375 289.015625 92 287.992188 92 Z M 223.6875 92 C 222.664062 92 221.640625 91.601562 220.855469 90.832031 L 205.496094 75.472656 C 203.9375 73.910156 203.9375 71.375 205.496094 69.816406 C 207.054688 68.257812 209.59375 68.257812 211.152344 69.816406 L 226.511719 85.175781 C 228.070312 86.734375 228.070312 89.273438 226.511719 90.832031 C 225.734375 91.609375 224.710938 92 223.6875 92 Z M 223.6875 92 "/>
<path style=" stroke:none;fill-rule:nonzero;fill:rgb(96.470588%,73.333333%,25.882353%);fill-opacity:1;" d="M 46.160156 496 L 217.535156 388.128906 C 218.414062 392.617188 286.457031 388.128906 286.457031 388.128906 L 457.839844 496 C 453.433594 500.878906 447.03125 504 440 504 L 64 504 C 56.960938 504 50.558594 500.878906 46.160156 496 Z M 46.160156 496 "/>
<path style=" stroke:none;fill-rule:nonzero;fill:rgb(100%,80.784314%,32.941176%);fill-opacity:1;" d="M 464 264 L 464 480 C 464 486.078125 461.679688 491.761719 457.839844 496 L 286.464844 388.128906 L 286.785156 349.175781 L 460.230469 248 C 462.628906 253.359375 464 258.960938 464 264 Z M 40 264 L 40 480 C 40 486.078125 42.320312 491.761719 46.160156 496 L 217.542969 388.128906 L 217.222656 349.175781 L 43.769531 248 C 41.359375 253.359375 40 258.960938 40 264 Z M 40 264 "/>
<path style=" stroke:none;fill-rule:nonzero;fill:rgb(92.941176%,67.058824%,21.568627%);fill-opacity:1;" d="M 320 460 L 184 460 C 181.792969 460 180 458.207031 180 456 C 180 453.792969 181.792969 452 184 452 L 320 452 C 322.207031 452 324 453.792969 324 456 C 324 458.207031 322.207031 460 320 460 Z M 284 476 L 220 476 C 217.792969 476 216 474.207031 216 472 C 216 469.792969 217.792969 468 220 468 L 284 468 C 286.207031 468 288 469.792969 288 472 C 288 474.207031 286.207031 476 284 476 Z M 284 476 "/>
<path style=" stroke:none;fill-rule:nonzero;fill:rgb(92.941176%,33.333333%,39.607843%);fill-opacity:1;" d="M 268 368 C 268 359.199219 260.800781 352 252 352 C 243.199219 352 236 359.199219 236 368 C 236 376.800781 243.199219 384 252 384 C 256.398438 384 260.398438 382.238281 263.28125 379.28125 C 266.230469 376.398438 268 372.398438 268 368 Z M 287.199219 348.960938 C 290.230469 354.640625 292 361.121094 292 368 C 292 375.359375 290 382.160156 286.558594 388.078125 C 279.433594 400.425781 266.257812 408.035156 252 408.035156 C 237.742188 408.035156 224.570312 400.425781 217.441406 388.078125 C 214 382.160156 212 375.359375 212 368 C 212 361.121094 213.769531 354.640625 216.800781 348.960938 C 223.609375 336.472656 236.800781 328 252 328 C 267.199219 328 280.398438 336.480469 287.199219 348.960938 Z M 287.199219 348.960938 "/>
<path style=" stroke:none;fill-rule:nonzero;fill:rgb(92.941176%,33.333333%,39.607843%);fill-opacity:1;" d="M 252 352 C 260.800781 352 268 359.199219 268 368 C 268 372.398438 266.230469 376.398438 263.28125 379.28125 C 260.398438 382.238281 256.398438 384 252 384 C 243.199219 384 236 376.800781 236 368 C 236 359.199219 243.199219 352 252 352 Z M 252 352 "/>
<path style=" stroke:none;fill-rule:nonzero;fill:rgb(92.941176%,67.058824%,21.568627%);fill-opacity:1;" d="M 320 460 L 184 460 C 181.792969 460 180 458.207031 180 456 C 180 453.792969 181.792969 452 184 452 L 320 452 C 322.207031 452 324 453.792969 324 456 C 324 458.207031 322.207031 460 320 460 Z M 284 476 L 220 476 C 217.792969 476 216 474.207031 216 472 C 216 469.792969 217.792969 468 220 468 L 284 468 C 286.207031 468 288 469.792969 288 472 C 288 474.207031 286.207031 476 284 476 Z M 284 476 "/>
<path style=" stroke:none;fill-rule:nonzero;fill:rgb(85.490196%,26.666667%,32.54902%);fill-opacity:1;" d="M 276 364 L 271.59375 364 C 271.078125 361.449219 270.054688 359.070312 268.65625 356.960938 L 271.777344 353.886719 C 273.34375 352.335938 273.359375 349.800781 271.816406 348.222656 C 270.257812 346.660156 267.734375 346.644531 266.152344 348.183594 L 262.984375 351.3125 C 260.886719 349.9375 258.546875 348.921875 256.007812 348.40625 L 256.007812 344 C 256.007812 341.792969 254.214844 340 252.007812 340 C 249.800781 340 248.007812 341.792969 248.007812 344 L 248.007812 348.40625 C 245.464844 348.921875 243.109375 349.9375 240.992188 351.328125 L 237.871094 348.207031 C 236.3125 346.648438 233.777344 346.648438 232.214844 348.207031 C 230.652344 349.769531 230.65625 352.304688 232.214844 353.863281 L 235.335938 356.984375 C 233.945312 359.089844 232.929688 361.457031 232.414062 364 L 228 364 C 225.792969 364 224 365.792969 224 368 C 224 370.207031 225.792969 372 228 372 L 232.40625 372 C 232.921875 374.535156 233.9375 376.886719 235.3125 378.976562 L 232.183594 382.144531 C 230.640625 383.71875 230.65625 386.257812 232.222656 387.808594 C 233.007812 388.574219 234.023438 388.960938 235.039062 388.960938 C 236.105469 388.960938 237.132812 388.535156 237.886719 387.777344 L 240.960938 384.65625 C 243.070312 386.054688 245.449219 387.078125 248 387.59375 L 248 392 C 248 394.207031 249.792969 396 252 396 C 254.207031 396 256 394.207031 256 392 L 256 387.601562 C 258.511719 387.101562 260.898438 386.109375 263.023438 384.679688 L 266.136719 387.792969 C 266.886719 388.542969 267.90625 388.964844 268.96875 388.960938 C 270.027344 388.960938 271.046875 388.539062 271.800781 387.792969 C 273.359375 386.230469 273.359375 383.695312 271.800781 382.136719 L 268.679688 379.015625 C 270.105469 376.886719 271.105469 374.519531 271.609375 372 L 276 372 C 278.207031 372 280 370.207031 280 368 C 280 365.792969 278.207031 364 276 364 Z M 252 380 C 245.382812 380 240 374.617188 240 368 C 240 361.382812 245.382812 356 252 356 C 258.617188 356 264 361.382812 264 368 C 264 371.214844 262.753906 374.207031 260.414062 376.496094 C 258.207031 378.753906 255.222656 380 252 380 Z M 252 380 "/>
<path style=" stroke:none;fill-rule:nonzero;fill:rgb(39.607843%,42.745098%,47.058824%);fill-opacity:1;" d="M 324 212 L 296 212 C 293.792969 212 292 210.207031 292 208 C 292 205.792969 293.792969 204 296 204 L 324 204 C 326.207031 204 328 205.792969 328 208 C 328 210.207031 326.207031 212 324 212 Z M 196 284 C 194.351562 284 192.875 282.992188 192.273438 281.457031 L 164.273438 209.457031 C 163.472656 207.390625 164.488281 205.070312 166.542969 204.28125 C 168.609375 203.480469 170.921875 204.496094 171.71875 206.550781 L 199.71875 278.550781 C 200.519531 280.617188 199.503906 282.9375 197.449219 283.726562 C 196.988281 283.90625 196.496094 284 196 284 Z M 196 284 "/>
<path style=" stroke:none;fill-rule:nonzero;fill:rgb(39.607843%,42.745098%,47.058824%);fill-opacity:1;" d="M 196 284 C 195.5 284 195.007812 283.90625 194.542969 283.726562 C 193.554688 283.34375 192.757812 282.582031 192.332031 281.609375 C 191.90625 280.640625 191.886719 279.539062 192.273438 278.550781 L 220.273438 206.550781 C 221.078125 204.496094 223.40625 203.464844 225.449219 204.28125 C 226.4375 204.664062 227.234375 205.425781 227.660156 206.398438 C 228.085938 207.367188 228.105469 208.46875 227.71875 209.457031 L 199.71875 281.457031 C 199.113281 283.03125 197.601562 284 196 284 Z M 256 284 C 253.792969 284 252 282.207031 252 280 L 252 208 C 252 205.792969 253.792969 204 256 204 C 258.207031 204 260 205.792969 260 208 L 260 280 C 260 282.207031 258.207031 284 256 284 Z M 296 284 C 293.792969 284 292 282.207031 292 280 L 292 208 C 292 205.792969 293.792969 204 296 204 C 298.207031 204 300 205.792969 300 208 L 300 280 C 300 282.207031 298.207031 284 296 284 Z M 324 252 C 321.792969 252 320 250.207031 320 248 C 320 245.792969 321.792969 244 324 244 C 332.832031 243.988281 339.988281 236.832031 340 228 C 339.988281 219.167969 332.832031 212.011719 324 212 C 321.792969 212 320 210.207031 320 208 C 320 205.792969 321.792969 204 324 204 C 337.230469 204 348 214.769531 348 228 C 348 241.230469 337.230469 252 324 252 Z M 324 252 "/>
<path style=" stroke:none;fill-rule:nonzero;fill:rgb(39.607843%,42.745098%,47.058824%);fill-opacity:1;" d="M 324 252 L 296 252 C 293.792969 252 292 250.207031 292 248 C 292 245.792969 293.792969 244 296 244 L 324 244 C 326.207031 244 328 245.792969 328 248 C 328 250.207031 326.207031 252 324 252 Z M 324 252 "/>
<path style=" stroke:none;fill-rule:nonzero;fill:rgb(96.470588%,73.333333%,25.882353%);fill-opacity:1;" d="M 213.335938 160 L 216 168 L 296 168 L 298.664062 160 Z M 213.335938 160 "/>
</g>
</svg>
